<svg xmlns="http://www.w3.org/2000/svg" xmlns:xlink="http://www.w3.org/1999/xlink" viewBox="0 0 84 84.00063">
  <path id="path3396" d="M0,42.00063a42.01081,42.01081,0,0,0,42,42h0a42.01081,42.01081,0,0,0,42-42h0a42.01081,42.01081,0,0,0-42-42h0a41.93088,41.93088,0,0,0-42,42" style="fill: rgba(255,255,255,.2)"/>
  <path id="path3408" d="M64.5,57.62563c-4,4.375-11.125,11.25-11.5,11.5a5.0614,5.0614,0,0,1-3.375,1.375,4.87471,4.87471,0,0,1-3.375-8.375c.125-.125,7.25-6.875,11-11a9.98758,9.98758,0,0,0,2.5-7.125,10.12654,10.12654,0,0,0-3.75-7.25c-3-2.5-8.75-3.125-12.375.125-2.125,2-4.75,4.75-4.875,4.875a4.86457,4.86457,0,0,1-7.125-6.625c.125-.125,3-3.25,5.5-5.5a19.49463,19.49463,0,0,1,25.25-.25,20.1616,20.1616,0,0,1,7.125,14,18.76653,18.76653,0,0,1-5,14.25m-29.375.375a19.20239,19.20239,0,0,1-12.5-4.5,20.1616,20.1616,0,0,1-7.125-14,19.43965,19.43965,0,0,1,5-14.25c4-4.375,11.125-11.25,11.5-11.5a4.86216,4.86216,0,1,1,6.75,7c-.125.125-7.25,6.875-11,11a9.98758,9.98758,0,0,0-2.5,7.125,10.12654,10.12654,0,0,0,3.75,7.25c3,2.5,8.75,3.125,12.375-.125,2.125-2,4.75-4.75,4.875-4.875a4.86457,4.86457,0,1,1,7.125,6.625c-.125.125-3,3.25-5.5,5.5a19.20305,19.20305,0,0,1-12.75,4.75" style="fill: #fff"/>
</svg>